<svg xmlns="http://www.w3.org/2000/svg" viewBox="0 0 96 150" width="96" height="150"><ellipse cx="48" cy="142" rx="26" ry="5" fill="#2E3327" opacity="0.2"/><path d="M72 36 C92 38 94 62 82 70 C84 58 80 46 72 44 Z" fill="#B55B34" stroke="#6E3218" stroke-width="3" stroke-linejoin="round" stroke-linecap="round"/><rect x="35" y="116" width="10" height="24" rx="4" fill="#3A3A40" stroke="#5B4A36" stroke-width="3" stroke-linejoin="round" stroke-linecap="round"/><rect x="51" y="116" width="10" height="24" rx="4" fill="#3A3A40" stroke="#5B4A36" stroke-width="3" stroke-linejoin="round" stroke-linecap="round"/><path d="M30 80 Q48 72 66 80 L74 122 Q48 130 22 122 Z" fill="#4A4A50" stroke="#5B4A36" stroke-width="3" stroke-linejoin="round" stroke-linecap="round"/><path d="M58 78 Q64 80 66 80 L74 122 Q66 126 58 127 Z" fill="#000" opacity=".12"/><path d="M36 90 L60 90 L62 124 Q48 128 34 124 Z" fill="#E07A3A" stroke="#5B4A36" stroke-width="2.5" stroke-linejoin="round" stroke-linecap="round"/><path d="M29 86 Q19 100 23 112" stroke="#5B4A36" stroke-width="13" stroke-linejoin="round" stroke-linecap="round" fill="none"/><path d="M29 86 Q19 100 23 112" stroke="#4A4A50" stroke-width="8" stroke-linejoin="round" stroke-linecap="round" fill="none"/><path d="M67 86 Q77 100 73 112" stroke="#5B4A36" stroke-width="13" stroke-linejoin="round" stroke-linecap="round" fill="none"/><path d="M67 86 Q77 100 73 112" stroke="#4A4A50" stroke-width="8" stroke-linejoin="round" stroke-linecap="round" fill="none"/><circle cx="23" cy="114" r="5" fill="#6B4A33" stroke="#5B4A36" stroke-width="2.5" stroke-linejoin="round" stroke-linecap="round"/><circle cx="73" cy="114" r="5" fill="#6B4A33" stroke="#5B4A36" stroke-width="2.5" stroke-linejoin="round" stroke-linecap="round"/><circle cx="48" cy="46" r="26" fill="#F6D6B8" stroke="#5B4A36" stroke-width="3" stroke-linejoin="round" stroke-linecap="round"/><path d="M28 58 Q48 74 68 58 Q62 70 48 72 Q34 70 28 58 Z" fill="#E3B08F" opacity=".45"/><ellipse cx="39" cy="51" rx="3.2" ry="4.2" fill="#2E3327"/><circle cx="40" cy="49.5" r="1.3" fill="#fff"/><ellipse cx="57" cy="51" rx="3.2" ry="4.2" fill="#2E3327"/><circle cx="58" cy="49.5" r="1.3" fill="#fff"/><path d="M36 42 q3 -2 6 0 M54 42 q3 -2 6 0" stroke="#5B4A36" stroke-width="1.8" stroke-linejoin="round" stroke-linecap="round" fill="none" opacity="0.9"/><path d="M45 60 q3 2.5 6 0" stroke="#5B4A36" stroke-width="2" stroke-linejoin="round" stroke-linecap="round" fill="none"/><ellipse cx="34" cy="58" rx="4" ry="2.4" fill="#F2A0A0" opacity=".55"/><ellipse cx="62" cy="58" rx="4" ry="2.4" fill="#F2A0A0" opacity=".55"/><g fill="#C77A55"><circle cx="36" cy="55" r="1"/><circle cx="39" cy="56.5" r="1"/><circle cx="57" cy="56.5" r="1"/><circle cx="60" cy="55" r="1"/></g><path d="M20 52 C16 18 80 16 76 52 C72 42 64 36 58 38 C56 42 50 42 46 38 C38 38 26 42 20 52 Z" fill="#B55B34" stroke="#6E3218" stroke-width="3" stroke-linejoin="round" stroke-linecap="round"/><g transform="rotate(-20 78 112)"><rect x="75" y="94" width="5" height="34" rx="2" fill="#8E6D56" stroke="#4B372B" stroke-width="2" stroke-linejoin="round" stroke-linecap="round"/><rect x="68" y="88" width="20" height="10" rx="2" fill="#9AA0A6" stroke="#4E5550" stroke-width="2.5" stroke-linejoin="round" stroke-linecap="round"/></g></svg>
