<svg xmlns="http://www.w3.org/2000/svg" viewBox="0 0 128 128" width="128" height="128"><ellipse cx="64" cy="112" rx="36" ry="7" fill="#2E3327" opacity="0.2"/><path d="M26 104 C18 70 44 38 64 38 C84 38 110 70 102 104 C90 112 38 112 26 104 Z" fill="#7FD1B9" stroke="#2F7F6E" stroke-width="3" stroke-linejoin="round" stroke-linecap="round"/><path d="M84 50 C98 64 104 88 100 104 C92 108 82 110 74 110 C90 92 92 68 84 50 Z" fill="#5FBFA5" opacity=".75"/><ellipse cx="46" cy="58" rx="9" ry="6" fill="#fff" opacity=".7" transform="rotate(-30 46 58)"/><ellipse cx="52" cy="80" rx="3.5200000000000005" ry="4.620000000000001" fill="#2E3327"/><circle cx="53.1" cy="78.35" r="1.4300000000000002" fill="#fff"/><ellipse cx="76" cy="80" rx="3.5200000000000005" ry="4.620000000000001" fill="#2E3327"/><circle cx="77.1" cy="78.35" r="1.4300000000000002" fill="#fff"/><path d="M58 92 q6 6 12 0" stroke="#2E3327" stroke-width="2" stroke-linejoin="round" stroke-linecap="round" fill="none"/></svg>
