<svg xmlns="http://www.w3.org/2000/svg" viewBox="0 0 128 96" width="128" height="96"><ellipse cx="60" cy="58" rx="44" ry="22" fill="#7DB26A" stroke="#2F4A3A" stroke-width="3" stroke-linejoin="round" stroke-linecap="round"/><path d="M60 58 L104 50 L102 62 Z" fill="#95C6C6" stroke="none"/><path d="M60 58 L30 48 M60 58 L40 72 M60 58 L76 76" stroke="#5E9A5C" stroke-width="2" stroke-linejoin="round" stroke-linecap="round"/><g transform="translate(58 44)"><path d="M0 6 C-8 -8 -4 -22 0 -26 C4 -22 8 -8 0 6 Z" transform="rotate(-50)" fill="#F0A7B4" stroke="#D9788C" stroke-width="2" stroke-linejoin="round" stroke-linecap="round"/><path d="M0 6 C-8 -8 -4 -22 0 -26 C4 -22 8 -8 0 6 Z" transform="rotate(-25)" fill="#F0A7B4" stroke="#D9788C" stroke-width="2" stroke-linejoin="round" stroke-linecap="round"/><path d="M0 6 C-8 -8 -4 -22 0 -26 C4 -22 8 -8 0 6 Z" transform="rotate(0)" fill="#F0A7B4" stroke="#D9788C" stroke-width="2" stroke-linejoin="round" stroke-linecap="round"/><path d="M0 6 C-8 -8 -4 -22 0 -26 C4 -22 8 -8 0 6 Z" transform="rotate(25)" fill="#F0A7B4" stroke="#D9788C" stroke-width="2" stroke-linejoin="round" stroke-linecap="round"/><path d="M0 6 C-8 -8 -4 -22 0 -26 C4 -22 8 -8 0 6 Z" transform="rotate(50)" fill="#F0A7B4" stroke="#D9788C" stroke-width="2" stroke-linejoin="round" stroke-linecap="round"/><circle cx="0" cy="2" r="5" fill="#F7D56A" stroke="#C9A23A" stroke-width="1.5"/></g></svg>
