<svg xmlns="http://www.w3.org/2000/svg" viewBox="0 0 128 128" width="128" height="128"><rect width="128" height="128" fill="#6E4C37"/><path d="M0 16 Q32 11 64 16 T128 16" stroke="#553A2A" stroke-width="7" stroke-linejoin="round" stroke-linecap="round" fill="none"/><path d="M0 8 Q32 3 64 8 T128 8" stroke="#8A6A55" stroke-width="3" stroke-linejoin="round" stroke-linecap="round" fill="none" opacity=".7"/><path d="M0 48 Q32 43 64 48 T128 48" stroke="#553A2A" stroke-width="7" stroke-linejoin="round" stroke-linecap="round" fill="none"/><path d="M0 40 Q32 35 64 40 T128 40" stroke="#8A6A55" stroke-width="3" stroke-linejoin="round" stroke-linecap="round" fill="none" opacity=".7"/><path d="M0 80 Q32 75 64 80 T128 80" stroke="#553A2A" stroke-width="7" stroke-linejoin="round" stroke-linecap="round" fill="none"/><path d="M0 72 Q32 67 64 72 T128 72" stroke="#8A6A55" stroke-width="3" stroke-linejoin="round" stroke-linecap="round" fill="none" opacity=".7"/><path d="M0 112 Q32 107 64 112 T128 112" stroke="#553A2A" stroke-width="7" stroke-linejoin="round" stroke-linecap="round" fill="none"/><path d="M0 104 Q32 99 64 104 T128 104" stroke="#8A6A55" stroke-width="3" stroke-linejoin="round" stroke-linecap="round" fill="none" opacity=".7"/><ellipse cx="44.05006858710563" cy="30.623825445816188" rx="3" ry="1.6" fill="#A8C8CC" opacity=".55"/><ellipse cx="50.29757373113855" cy="82.66917009602194" rx="3" ry="1.6" fill="#A8C8CC" opacity=".55"/><ellipse cx="118.54970850480109" cy="55.7746999314129" rx="3" ry="1.6" fill="#A8C8CC" opacity=".55"/><ellipse cx="61.97313957475994" cy="117.10708161865568" rx="3" ry="1.6" fill="#A8C8CC" opacity=".55"/><ellipse cx="47.734533607681755" cy="79.83298182441702" rx="3" ry="1.6" fill="#A8C8CC" opacity=".55"/><ellipse cx="7.000557270233196" cy="111.11906721536351" rx="3" ry="1.6" fill="#A8C8CC" opacity=".55"/><ellipse cx="106.93787722908094" cy="24.132004458161866" rx="3" ry="1.6" fill="#A8C8CC" opacity=".55"/><ellipse cx="42.71316015089163" cy="104.03846021947874" rx="3" ry="1.6" fill="#A8C8CC" opacity=".55"/></svg>
